<svg width="22" height="14" viewBox="0 0 22 14" fill="none" xmlns="http://www.w3.org/2000/svg">
<path d="M1.14498 1.12118L1.14494 1.12113L1.14094 1.1248C0.881856 1.36262 0.75 1.67788 0.75 2.00942C0.75 2.30034 0.843978 2.58139 1.06715 2.82096L10.1894 12.8291L10.1896 12.8294C10.7021 13.3902 11.5815 13.3902 12.094 12.8294L12.094 12.8294L12.0973 12.8257L20.9376 2.76024C20.938 2.75986 20.9383 2.75947 20.9387 2.75908C21.3825 2.26424 21.3474 1.50955 20.8612 1.0659L20.8612 1.06586L20.8577 1.06277C20.364 0.628905 19.6013 0.638495 19.1487 1.14178L19.1466 1.14421L11.1381 10.2864L2.85283 1.19891L2.85284 1.1989L2.85081 1.19672C2.40279 0.716934 1.64338 0.683234 1.14498 1.12118Z" fill="white" stroke="white" stroke-width="0.5"/>
</svg>
