<svg width="28" height="25" viewBox="0 0 28 25" fill="none" xmlns="http://www.w3.org/2000/svg">
<path d="M13.4723 24.5752C13.7349 24.8584 14.0783 25 14.4418 25C14.765 25 15.068 24.8989 15.3306 24.6561L27.5304 13.5501C28.1565 12.9837 28.1565 12.0126 27.5304 11.4462L15.3306 0.340209C14.7852 -0.1453 13.9571 -0.104841 13.4723 0.421127C12.9876 0.967324 13.0078 1.79674 13.5531 2.28224L23.3203 11.1832H1.31289C0.587803 11.1832 0 11.7719 0 12.4982C0 13.2244 0.587803 13.8131 1.31289 13.8131H23.3203L13.5531 22.7141C13.028 23.1996 12.9876 24.029 13.4723 24.5752Z" fill="#89B5F7"/>
</svg>
