<svg width="25" height="26" viewBox="0 0 25 26" fill="none" xmlns="http://www.w3.org/2000/svg">
<path d="M0.424816 12.51C0.141603 12.7538 -1.90735e-06 13.0727 -1.90735e-06 13.4103C-1.90735e-06 13.7104 0.101143 13.9917 0.343897 14.2355L11.4499 25.5639C12.0163 26.1454 12.9874 26.1454 13.5538 25.5639L24.6598 14.2355C25.1453 13.7291 25.1048 12.9601 24.5789 12.51C24.0327 12.0599 23.2033 12.0786 22.7178 12.585L13.8168 21.6546L13.8168 1.21912C13.8168 0.545817 13.2281 0 12.5018 0C11.7756 0 11.1869 0.545817 11.1869 1.21912L11.1869 21.6546L2.28593 12.585C1.80042 12.0974 0.971016 12.0599 0.424816 12.51Z" fill="#89B5F7"/>
</svg>
