<svg width="45" height="51" viewBox="0 0 45 51" fill="none" xmlns="http://www.w3.org/2000/svg">
<path fill-rule="evenodd" clip-rule="evenodd" d="M0 8.42308C0 3.77114 3.7776 0 8.4375 0H26.6634C28.807 0 30.8703 0.814517 32.4342 2.27813L42.3333 11.5427C44.0347 13.135 45 15.3594 45 17.6876V42.1154C45 46.7673 41.2224 50.5385 36.5625 50.5385H8.43751C3.7776 50.5385 5.36442e-06 46.7673 2.68221e-06 42.1154L0 8.42308ZM39.811 16.8461C40.688 16.8461 41.1272 15.7876 40.5071 15.1686L29.8054 4.48525C29.1853 3.86619 28.125 4.30463 28.125 5.18012V12.8446C28.125 15.0546 29.8075 16.8462 31.8829 16.8462L39.811 16.8461ZM22.5003 16.8462C23.5099 16.8462 24.3284 17.6632 24.3284 18.6712V25.2692H30.9378C31.9474 25.2692 32.7659 26.0863 32.7659 27.0942C32.7659 28.1022 31.9474 28.9192 30.9378 28.9192H24.3284V35.5173C24.3284 36.5252 23.5099 37.3423 22.5003 37.3423C21.4906 37.3423 20.6721 36.5252 20.6721 35.5173V28.9192L14.0628 28.9192C13.0531 28.9192 12.2346 28.1021 12.2346 27.0942C12.2346 26.0863 13.0531 25.2692 14.0628 25.2692H20.6721V18.6712C20.6721 17.6632 21.4906 16.8462 22.5003 16.8462Z" fill="#89B5F7"/>
</svg>
