<svg width="45" height="50" viewBox="0 0 45 50" fill="none" xmlns="http://www.w3.org/2000/svg">
<path fill-rule="evenodd" clip-rule="evenodd" d="M0 8.29787C0 3.71508 3.7776 0 8.4375 0H26.6634C28.807 0 30.8703 0.80241 32.4342 2.24426L42.3333 11.3711C44.0347 12.9398 45 15.1311 45 17.4247V41.4893C45 46.0721 41.2224 49.7872 36.5625 49.7872H8.43751C3.7776 49.7872 5.36442e-06 46.0721 2.68221e-06 41.4894L0 8.29787ZM39.811 16.5957C40.688 16.5957 41.1272 15.5529 40.5071 14.9431L29.8054 4.41857C29.1853 3.80872 28.125 4.24065 28.125 5.10312V12.6537C28.125 14.8308 29.8075 16.5957 31.8829 16.5957L39.811 16.5957ZM22.5 24.8936H23.5385H24.3284H30.9378C31.9474 24.8936 32.7659 25.6986 32.7659 26.6915C32.7659 27.6844 31.9474 28.4894 30.9378 28.4894H24.3284H23.5385C23.5385 28.4894 23.5096 28.4894 22.5 28.4894H21.281H20.6721L14.0628 28.4894C13.0531 28.4894 12.2346 27.6844 12.2346 26.6915C12.2346 25.6985 13.0531 24.8936 14.0628 24.8936H20.6721H21.281H22.5Z" fill="#89B5F7"/>
</svg>
