<svg width="100" height="100" viewBox="0 0 100 100" fill="none" xmlns="http://www.w3.org/2000/svg">
<path fill-rule="evenodd" clip-rule="evenodd" d="M16.6667 25C16.6667 18.0964 22.2632 12.5 29.1667 12.5H56.1681C59.3438 12.5 62.4005 13.7088 64.7174 15.8808L79.3827 29.6295C81.9033 31.9926 83.3334 35.2936 83.3334 38.7487V75C83.3334 81.9035 77.737 87.5 70.8334 87.5H29.1668C22.2632 87.5 16.6668 81.9036 16.6667 75V25ZM75.646 37.5C76.9453 37.5 77.5959 35.9291 76.6772 35.0104L60.8229 19.1562C59.9042 18.2375 58.3334 18.8882 58.3334 20.1874V31.5616C58.3334 34.8413 60.826 37.5 63.9007 37.5L75.646 37.5ZM47.2917 37.4732C48.7875 37.4732 50.0001 36.2607 50.0001 34.7649C50.0001 33.2691 48.7875 32.0566 47.2917 32.0566L36.0244 32.0566C34.5286 32.0566 33.3161 33.2691 33.3161 34.7649C33.3161 36.2606 34.5286 37.4732 36.0244 37.4732L47.2917 37.4732ZM66.6667 49.3894C66.6667 50.8852 65.4542 52.0977 63.9584 52.0977L36.0244 52.0978C34.5286 52.0977 33.3161 50.8852 33.3161 49.3894C33.3161 47.8936 34.5286 46.6811 36.0244 46.6811L63.9584 46.6811C65.4542 46.6811 66.6667 47.8936 66.6667 49.3894ZM63.9584 66.7224C65.4542 66.7224 66.6667 65.5098 66.6667 64.0141C66.6667 62.5183 65.4542 61.3057 63.9584 61.3057L36.0244 61.3058C34.5286 61.3058 33.3161 62.5183 33.3161 64.0141C33.3161 65.5098 34.5286 66.7224 36.0244 66.7224H63.9584Z" fill="#89B5F7"/>
</svg>
