<svg width="100" height="100" viewBox="0 0 100 100" fill="none" xmlns="http://www.w3.org/2000/svg">
<path d="M63.9584 52.0977C65.4542 52.0977 66.6667 50.8852 66.6667 49.3894C66.6667 47.8936 65.4542 46.6811 63.9584 46.6811L36.0244 46.6811C34.5286 46.6811 33.3161 47.8936 33.3161 49.3894C33.3161 50.8852 34.5286 52.0977 36.0244 52.0978L63.9584 52.0977Z" fill="#89B5F7"/>
<path d="M66.6667 64.0141C66.6667 65.5098 65.4542 66.7224 63.9584 66.7224L36.0244 66.7224C34.5286 66.7224 33.3161 65.5098 33.3161 64.0141C33.3161 62.5183 34.5286 61.3058 36.0244 61.3058L63.9584 61.3057C65.4542 61.3057 66.6667 62.5183 66.6667 64.0141Z" fill="#89B5F7"/>
<path d="M47.2917 37.4732C48.7875 37.4732 50.0001 36.2607 50.0001 34.7649C50.0001 33.2691 48.7875 32.0566 47.2917 32.0566L36.0244 32.0566C34.5286 32.0566 33.3161 33.2691 33.3161 34.7649C33.3161 36.2606 34.5286 37.4732 36.0244 37.4732L47.2917 37.4732Z" fill="#89B5F7"/>
<path fill-rule="evenodd" clip-rule="evenodd" d="M29.1667 12.5C22.2632 12.5 16.6667 18.0964 16.6667 25V75C16.6667 81.9036 22.2632 87.5 29.1668 87.5H70.8334C77.737 87.5 83.3334 81.9036 83.3334 75V38.7487C83.3334 35.2936 81.9033 31.9926 79.3827 29.6295L64.7174 15.8808C62.4005 13.7088 59.3438 12.5 56.1681 12.5H29.1667ZM56.1681 17.9167L29.1667 17.9167C25.2547 17.9167 22.0834 21.088 22.0834 25L22.0834 75C22.0834 78.912 25.2547 82.0833 29.1668 82.0833H70.8334C74.7454 82.0833 77.9167 78.912 77.9167 75L77.9167 38.7487C77.9167 38.3306 77.8798 37.9164 77.8077 37.5105L66.6649 37.5105C62.1776 37.5105 58.5399 33.8728 58.5399 29.3855V18.3256C57.785 18.0573 56.9834 17.9167 56.1681 17.9167ZM63.9566 22.5923L74.0915 32.0938L66.6649 32.0938C65.1691 32.0938 63.9566 30.8813 63.9566 29.3855V22.5923Z" fill="#89B5F7"/>
</svg>
