<svg width="67" height="67" viewBox="0 0 67 67" fill="none" xmlns="http://www.w3.org/2000/svg">
<path fill-rule="evenodd" clip-rule="evenodd" d="M49.273 9.35217C53.8984 9.35217 57.648 13.1018 57.648 17.7272V45.6438C57.648 50.2692 53.8984 54.0188 49.273 54.0188H26.9397C22.3143 54.0188 18.5647 50.2692 18.5647 45.6438V17.7272C18.5647 13.1018 22.3143 9.35217 26.9397 9.35217H49.273ZM26.9397 12.9813H49.273C51.894 12.9813 54.0188 15.1061 54.0188 17.7272V45.6438C54.0188 48.2649 51.894 50.3897 49.273 50.3897H26.9397C24.3186 50.3897 22.1938 48.2649 22.1938 45.6438V17.7272C22.1938 15.1061 24.3186 12.9813 26.9397 12.9813ZM11.1667 26.1022C11.1667 25.1 11.9792 24.2876 12.9813 24.2876C13.9835 24.2876 14.7959 25.1 14.7959 26.1022V52.3438C14.7959 55.3503 17.2332 57.7876 20.2397 57.7876H43.6897C44.6918 57.7876 45.5042 58.6 45.5042 59.6022C45.5042 60.6043 44.6918 61.4168 43.6897 61.4168H20.2397C15.2288 61.4168 11.1667 57.3547 11.1667 52.3438V26.1022ZM39.1519 22.0472C39.1519 23.0494 38.3395 23.8618 37.3373 23.8618L29.7882 23.8618C28.786 23.8618 27.9736 23.0494 27.9736 22.0472C27.9736 21.045 28.786 20.2326 29.7882 20.2326L37.3373 20.2326C38.3395 20.2326 39.1519 21.0451 39.1519 22.0472ZM46.4205 33.6602C47.4227 33.6602 48.2351 32.8478 48.2351 31.8456C48.2351 30.8435 47.4227 30.0311 46.4205 30.0311L29.7882 30.0311C28.786 30.0311 27.9736 30.8435 27.9736 31.8456C27.9736 32.8478 28.786 33.6602 29.7882 33.6602L46.4205 33.6602ZM48.2351 41.6442C48.2351 42.6463 47.4227 43.4588 46.4205 43.4588L29.7882 43.4588C28.786 43.4588 27.9736 42.6463 27.9736 41.6442C27.9736 40.642 28.786 39.8296 29.7882 39.8296L46.4205 39.8296C47.4227 39.8296 48.2351 40.642 48.2351 41.6442Z" fill="#89B5F7"/>
</svg>
