<svg width="27" height="27" viewBox="0 0 27 27" fill="none" xmlns="http://www.w3.org/2000/svg">
<path fill-rule="evenodd" clip-rule="evenodd" d="M0 13.5C0 6.04416 6.04416 0 13.5 0C20.9558 0 27 6.04416 27 13.5C27 20.9558 20.9558 27 13.5 27C6.04416 27 0 20.9558 0 13.5ZM17.4678 14.2076C17.087 14.5884 17.087 15.2057 17.4678 15.5865C17.8485 15.9672 18.4659 15.9672 18.8466 15.5865L19.871 14.5621C21.9212 12.5118 21.9212 9.1877 19.871 7.13744C17.8207 5.08719 14.4966 5.08719 12.4464 7.13744L11.422 8.16185C11.0412 8.54261 11.0412 9.15994 11.422 9.5407C11.8028 9.92146 12.4201 9.92146 12.8009 9.54069L13.8252 8.5163C15.114 7.22757 17.2034 7.22757 18.4921 8.5163C19.7809 9.80503 19.7809 11.8945 18.4921 13.1832L17.4678 14.2076ZM15.6646 17.3896C15.2839 17.0088 14.6665 17.0088 14.2858 17.3896L13.1748 18.5006C11.8861 19.7893 9.79661 19.7893 8.50788 18.5006C7.21915 17.2119 7.21915 15.1224 8.50788 13.8337L9.61888 12.7227C9.99964 12.3419 9.99964 11.7246 9.61888 11.3438C9.23812 10.9631 8.62078 10.9631 8.24002 11.3438L7.12902 12.4548C5.07877 14.5051 5.07877 17.8292 7.12902 19.8794C9.17928 21.9297 12.5034 21.9297 14.5536 19.8794L15.6646 18.7684C16.0454 18.3877 16.0454 17.7704 15.6646 17.3896ZM15.9086 12.4788C16.2893 12.098 16.2893 11.4807 15.9086 11.0999C15.5278 10.7191 14.9105 10.7191 14.5297 11.0999L11.1034 14.5262C10.7227 14.9069 10.7227 15.5243 11.1034 15.905C11.4842 16.2858 12.1015 16.2858 12.4823 15.905L15.9086 12.4788Z" fill="#89B5F7"/>
</svg>
