<svg width="154" height="54" viewBox="0 0 154 54" fill="none" xmlns="http://www.w3.org/2000/svg">
<path fill-rule="evenodd" clip-rule="evenodd" d="M43.8121 8.01388H7.79211L10.391 0.630157H46.4109L43.8121 8.01388ZM42.512 11.7054H6.49143L3.89258 19.0891H39.9132L42.512 11.7054ZM38.6188 22.7807H2.59885L0 30.1644H36.0199L38.6188 22.7807Z" fill="#00A5FF"/>
<path fill-rule="evenodd" clip-rule="evenodd" d="M132.092 46.2895H138.642C141.126 46.2895 142.632 45.7053 143.686 44.3918C144.213 43.7344 144.966 42.5666 144.966 40.3767C144.966 38.1869 144.213 36.6538 142.708 35.5592C141.804 34.9018 140.599 34.5372 138.567 34.5372H132.092V46.2895ZM123.434 53.37V11.1783H151.741L149.257 18.2594H132.092V27.6024H139.093C144.74 27.6024 147.676 28.9165 149.709 30.5954C151.29 31.9095 154 34.8293 154 40.5957C154 46.2895 151.214 49.4282 148.88 51.0338C146.17 52.859 143.31 53.37 137.513 53.37H123.434ZM98.3646 53.37V18.2594H85.7921V11.1783H120.724L118.24 18.2594H107.097V53.37H98.3646ZM63.5075 28.0409H68.4013C69.9063 28.0409 70.6592 28.0409 71.4127 27.8213C73.4454 27.2377 74.7247 25.4857 74.7247 23.077C74.7247 20.2298 73.3699 18.9894 71.4127 18.4052C70.5844 18.1863 69.756 18.1131 68.1 18.1131H63.5075V28.0409ZM63.5831 35.3403V46.4352H69.6058C71.4128 46.4352 73.0688 46.2895 74.2732 45.1943C75.4776 44.0997 76.0046 42.7129 76.0046 40.8878C76.0046 39.5011 75.6285 38.1869 74.8757 37.238C73.5958 35.705 72.0146 35.3403 69.3045 35.3403H63.5831ZM77.5107 30.8874V31.0332C79.1667 31.6174 80.7473 32.6394 81.5756 33.2962C84.1354 35.3403 85.265 38.0411 85.265 41.5445C85.265 47.3115 82.1026 51.4723 76.9082 52.7858C75.3271 53.2237 73.6711 53.37 70.5842 53.37H54.8494V11.1783H68.7773C71.6383 11.1783 73.5956 11.3246 75.3271 11.7625C80.3712 13.0766 83.6838 16.4342 83.6838 21.7628C83.6838 24.61 82.6297 27.0188 80.8982 28.6244C80.1454 29.3543 79.0913 30.2307 77.5107 30.8874Z" fill="#022D9A"/>
</svg>
