<svg width="48" height="54" viewBox="0 0 48 54" fill="none" xmlns="http://www.w3.org/2000/svg">
<path fill-rule="evenodd" clip-rule="evenodd" d="M10.4007 14.9041C9.47806 6.96006 15.8288 0 24 0C32.1712 0 38.5219 6.96006 37.5993 14.9041L36.7959 21.8219C36.0564 28.1897 30.5498 33 24 33C17.4502 33 11.9436 28.1897 11.2041 21.8219L10.4007 14.9041Z" fill="#89B5F7"/>
<path fill-rule="evenodd" clip-rule="evenodd" d="M0.358402 50.0953C2.22885 41.8596 9.69432 36 18.3167 36H29.6834C38.3057 36 45.7712 41.8596 47.6416 50.0953L47.948 51.4444C48.2459 52.7559 47.2259 54 45.8529 54H2.14711C0.774057 54 -0.245877 52.7559 0.0519795 51.4444L0.358402 50.0953Z" fill="#89B5F7"/>
</svg>
